<?xml version="1.0" encoding="utf-8"?>
<!-- Generator: Adobe Illustrator 24.2.3, SVG Export Plug-In . SVG Version: 6.00 Build 0)  -->
<svg version="1.1" id="Livello_1" xmlns="http://www.w3.org/2000/svg" xmlns:xlink="http://www.w3.org/1999/xlink" x="0px" y="0px"
	 viewBox="0 0 702.6 450" style="enable-background:new 0 0 702.6 450;" xml:space="preserve">
<style type="text/css">
	.st0{fill:#FFFFFF;}
	.st1{fill:none;stroke:#EBF0F8;}
	.st2{clip-path:url(#SVGID_2_);}
	.st3{fill:#FFFFFF;stroke:#FFFFFF;stroke-width:0.5;stroke-miterlimit:2;}
	.st4{fill:#B2F2FF;stroke:#FFFFFF;stroke-width:0.5;stroke-miterlimit:2;}
	.st5{fill:#33DDFF;stroke:#FFFFFF;stroke-width:0.5;stroke-miterlimit:2;}
	.st6{fill:#00AAFF;stroke:#FFFFFF;stroke-width:0.5;stroke-miterlimit:2;}
	.st7{fill:#0055FF;stroke:#FFFFFF;stroke-width:0.5;stroke-miterlimit:2;}
	.st8{fill:#0000FF;stroke:#FFFFFF;stroke-width:0.5;stroke-miterlimit:2;}
	.st9{fill:#AA00FF;stroke:#FFFFFF;stroke-width:0.5;stroke-miterlimit:2;}
	.st10{fill:#FF00FF;stroke:#FFFFFF;stroke-width:0.5;stroke-miterlimit:2;}
	.st11{fill:#CC0000;stroke:#FFFFFF;stroke-width:0.5;stroke-miterlimit:2;}
	.st12{fill:#FFAA00;stroke:#FFFFFF;stroke-width:0.5;stroke-miterlimit:2;}
	.st13{fill:#2A3F5F;}
	.st14{font-family:'Verdana';}
	.st15{font-size:12px;}
	.st16{clip-path:url(#SVGID_4_);}
	.st17{fill:#FFFFFF;stroke:#FFFFFF;stroke-width:0.5;}
	.st18{fill-opacity:0;}
	.st19{fill:#B2F2FF;stroke:#FFFFFF;stroke-width:0.5;}
	.st20{fill:#33DDFF;stroke:#FFFFFF;stroke-width:0.5;}
	.st21{fill:#00AAFF;stroke:#FFFFFF;stroke-width:0.5;}
	.st22{fill:#0055FF;stroke:#FFFFFF;stroke-width:0.5;}
	.st23{fill:#0000FF;stroke:#FFFFFF;stroke-width:0.5;}
	.st24{fill:#AA00FF;stroke:#FFFFFF;stroke-width:0.5;}
	.st25{fill:#FF00FF;stroke:#FFFFFF;stroke-width:0.5;}
	.st26{fill:#CC0000;stroke:#FFFFFF;stroke-width:0.5;}
	.st27{fill:#FFAA00;stroke:#FFFFFF;stroke-width:0.5;}
	.st28{fill:#808BA4;}
</style>
<rect x="-335" y="0" class="st0" width="1303" height="450"/>
<g>
	<g>
		<g>
			<path class="st0" d="M444.5,231.5C444.5,121.9,355.6,33,246,33S47.5,121.9,47.5,231.5S136.4,430,246,430S444.5,341.1,444.5,231.5
				z"/>
		</g>
		<g>
			<path class="st1" d="M246,231.5V33"/>
			<path class="st1" d="M246,231.5L386.3,91.1"/>
			<path class="st1" d="M246,231.5h198.5"/>
			<path class="st1" d="M246,231.5l140.4,140.4"/>
			<path class="st1" d="M246,231.5V430"/>
			<path class="st1" d="M246,231.5L105.6,371.9"/>
			<path class="st1" d="M246,231.5H47.5"/>
			<path class="st1" d="M246,231.5L105.6,91.1"/>
		</g>
		<g transform="translate(581,231.5)">
			<path class="st1" d="M-311.7,0c0-12.9-10.5-23.4-23.4-23.4S-358.4-12.9-358.4,0c0,0,0,0,0,0c0,12.9,10.5,23.4,23.4,23.4
				S-311.7,12.9-311.7,0C-311.7,0-311.7,0-311.7,0z"/>
			<path class="st1" d="M-288.3,0c0-25.8-20.9-46.7-46.7-46.7S-381.7-25.8-381.7,0c0,0,0,0,0,0c0,25.8,20.9,46.7,46.7,46.7
				C-309.2,46.7-288.3,25.8-288.3,0C-288.3,0-288.3,0-288.3,0z"/>
			<path class="st1" d="M-264.9,0c0-38.7-31.4-70.1-70.1-70.1S-405.1-38.7-405.1,0s31.4,70.1,70.1,70.1S-264.9,38.7-264.9,0z"/>
			<path class="st1" d="M-241.6,0c0-51.6-41.8-93.4-93.4-93.5S-428.5-51.6-428.5,0c0,0,0,0,0,0c0,51.6,41.8,93.4,93.4,93.5
				S-241.6,51.6-241.6,0C-241.6,0-241.6,0-241.6,0z"/>
			<path class="st1" d="M-218.2,0c0-64.5-52.3-116.8-116.8-116.8S-451.8-64.5-451.8,0s52.3,116.8,116.8,116.8S-218.2,64.5-218.2,0z"
				/>
			<path class="st1" d="M-194.8,0c0-77.4-62.7-140.2-140.1-140.2S-475.2-77.5-475.2,0c0,0,0,0,0,0c0,77.4,62.7,140.2,140.1,140.2
				S-194.9,77.5-194.8,0C-194.8,0-194.8,0-194.8,0z"/>
			<path class="st1" d="M-171.5,0c0-90.3-73.2-163.5-163.5-163.5S-498.5-90.3-498.5,0c0,0,0,0,0,0c0,90.3,73.2,163.5,163.5,163.5
				S-171.5,90.3-171.5,0C-171.5,0-171.5,0-171.5,0z"/>
			<path class="st1" d="M-148.1,0c0-103.2-83.7-186.9-186.9-186.9S-521.9-103.2-521.9,0s83.7,186.9,186.9,186.9
				S-148.1,103.2-148.1,0z"/>
		</g>
		<g>
			<defs>
				<circle id="SVGID_1_" cx="246" cy="231.5" r="198.5"/>
			</defs>
			<clipPath id="SVGID_2_">
				<use xlink:href="#SVGID_1_"  style="overflow:visible;"/>
			</clipPath>
			<g transform="translate(382.5,33)" class="st2">
				<g>
					<g>
						<g>
							<g>
								<path class="st3" d="M-136.5,198.5l6.3-35.5c-4.2-0.7-8.5-0.7-12.7,0L-136.5,198.5L-136.5,198.5z"/>
							</g>
							<g>
								<path class="st3" d="M-136.5,198.5l19.4-30.3c-3.6-2.3-7.5-3.9-11.7-4.8L-136.5,198.5L-136.5,198.5z"/>
							</g>
							<g>
								<path class="st3" d="M-136.5,198.5l29.6-20.6c-2.4-3.5-5.5-6.5-9-9L-136.5,198.5L-136.5,198.5z"/>
							</g>
							<g>
								<path class="st3" d="M-136.5,198.5l35.2-7.7c-0.9-4.2-2.6-8.1-4.8-11.7L-136.5,198.5L-136.5,198.5z"/>
							</g>
							<g>
								<path class="st3" d="M-136.5,198.5l35.5,6.3c0.7-4.2,0.7-8.5,0-12.7L-136.5,198.5L-136.5,198.5z"/>
							</g>
							<g>
								<path class="st3" d="M-136.5,198.5l30.3,19.4c2.3-3.6,3.9-7.5,4.8-11.7L-136.5,198.5L-136.5,198.5z"/>
							</g>
							<g>
								<path class="st3" d="M-136.5,198.5l20.6,29.6c3.5-2.4,6.5-5.5,9-9L-136.5,198.5L-136.5,198.5z"/>
							</g>
							<g>
								<path class="st3" d="M-136.5,198.5l7.7,35.2c4.2-0.9,8.1-2.6,11.7-4.8L-136.5,198.5L-136.5,198.5z"/>
							</g>
							<g>
								<path class="st3" d="M-136.5,198.5l-6.3,35.5c4.2,0.7,8.5,0.7,12.7,0L-136.5,198.5L-136.5,198.5z"/>
							</g>
							<g>
								<path class="st3" d="M-136.5,198.5l-19.4,30.3c3.6,2.3,7.5,3.9,11.7,4.8L-136.5,198.5L-136.5,198.5z"/>
							</g>
							<g>
								<path class="st3" d="M-136.5,198.5l-29.6,20.6c2.4,3.5,5.5,6.5,9,9L-136.5,198.5L-136.5,198.5z"/>
							</g>
							<g>
								<path class="st3" d="M-136.5,198.5l-35.2,7.7c0.9,4.2,2.6,8.1,4.8,11.7L-136.5,198.5L-136.5,198.5z"/>
							</g>
							<g>
								<path class="st3" d="M-136.5,198.5l-35.5-6.3c-0.7,4.2-0.7,8.5,0,12.7L-136.5,198.5L-136.5,198.5z"/>
							</g>
							<g>
								<path class="st3" d="M-136.5,198.5l-30.3-19.4c-2.3,3.6-3.9,7.5-4.8,11.7L-136.5,198.5L-136.5,198.5z"/>
							</g>
							<g>
								<path class="st3" d="M-136.5,198.5l-20.6-29.6c-3.5,2.4-6.5,5.5-9,9L-136.5,198.5L-136.5,198.5z"/>
							</g>
							<g>
								<path class="st3" d="M-136.5,198.5l-7.7-35.2c-4.2,0.9-8.1,2.6-11.7,4.8L-136.5,198.5L-136.5,198.5z"/>
							</g>
						</g>
					</g>
					<g>
						<g>
							<g>
								<path class="st4" d="M-130.2,163l5-28.1c-7.5-1.3-15.2-1.3-22.7,0l5,28.1C-138.7,162.3-134.4,162.3-130.2,163z"/>
							</g>
							<g>
								<path class="st4" d="M-117.1,168.2l15.2-23.8c-6.4-4.1-13.5-7-20.9-8.7l-6.1,27.6C-124.6,164.2-120.7,165.9-117.1,168.2z"/>
							</g>
							<g>
								<path class="st4" d="M-107,177.9l38.3-26.7c-5.6-8-12.5-15-20.6-20.6l-26.7,38.3C-112.4,171.4-109.4,174.4-107,177.9z"/>
							</g>
							<g>
								<path class="st4" d="M-101.3,190.8l54.7-12C-49,168.2-53.1,158-59,148.9l-47.2,30.2C-103.9,182.7-102.2,186.6-101.3,190.8z"
									/>
							</g>
							<g>
								<path class="st4" d="M-101,204.8l41,7.3c1.6-9,1.6-18.3,0-27.3l-41,7.3C-100.3,196.4-100.3,200.6-101,204.8z"/>
							</g>
							<g>
								<path class="st4" d="M-106.2,217.9l27.2,17.4c4.3-6.8,7.5-14.3,9.2-22.2l-31.5-6.9C-102.2,210.4-103.9,214.3-106.2,217.9z"
									/>
							</g>
							<g>
								<path class="st4" d="M-115.9,228.1l13,18.6c5.7-4,10.6-8.9,14.6-14.6l-18.6-13C-109.4,222.6-112.4,225.6-115.9,228.1z"/>
							</g>
							<g>
								<path class="st4" d="M-128.8,233.7l5.8,26.3c7.3-1.6,14.2-4.5,20.5-8.5l-14.5-22.7C-120.7,231.1-124.6,232.8-128.8,233.7z"
									/>
							</g>
							<g>
								<path class="st4" d="M-142.9,234l-3.4,18.9c6.4,1.1,13,1.1,19.4,0l-3.4-18.9C-134.4,234.7-138.7,234.7-142.9,234z"/>
							</g>
							<g>
								<path class="st4" d="M-155.9,228.8l-13.9,21.8c6.2,3.9,13,6.8,20.1,8.3l5.5-25.3C-148.4,232.8-152.4,231.1-155.9,228.8z"/>
							</g>
							<g>
								<path class="st4" d="M-166.1,219.1l-22.8,15.9c4.3,6.2,9.7,11.5,15.9,15.9l15.9-22.8C-160.6,225.6-163.6,222.6-166.1,219.1z
									"/>
							</g>
							<g>
								<path class="st4" d="M-171.7,206.2l-22.1,4.9c1.5,6.8,4.2,13.2,7.9,19.1l19.1-12.2C-169.2,214.3-170.8,210.4-171.7,206.2z"
									/>
							</g>
							<g>
								<path class="st4" d="M-172,192.2l-23.6-4.2c-1.2,7-1.2,14.1,0,21.1l23.6-4.2C-172.7,200.6-172.7,196.4-172,192.2z"/>
							</g>
							<g>
								<path class="st4" d="M-166.9,179.1l-14.8-9.5c-3.4,5.3-5.9,11.2-7.2,17.4l17.2,3.8C-170.8,186.6-169.2,182.7-166.9,179.1z"
									/>
							</g>
							<g>
								<path class="st4" d="M-157.1,168.9l-9.9-14.2c-5.2,3.6-9.7,8.1-13.3,13.3l14.2,9.9C-163.6,174.4-160.6,171.4-157.1,168.9z"
									/>
							</g>
							<g>
								<path class="st4" d="M-144.2,163.3l-4.3-19.5c-6.5,1.4-12.6,4-18.2,7.5l10.8,16.8C-152.4,165.9-148.4,164.2-144.2,163.3z"/>
							</g>
						</g>
					</g>
					<g>
						<g>
							<g>
								<path class="st5" d="M-125.2,134.9l7.6-42.5c-12.5-2.2-25.4-2.2-37.9,0l7.6,42.5C-140.4,133.6-132.7,133.6-125.2,134.9z"/>
							</g>
							<g>
								<path class="st5" d="M-101.9,144.3l31.8-49.6c-12.3-7.8-25.8-13.5-40-16.6l-12.6,57.6C-115.3,137.3-108.2,140.2-101.9,144.3
									z"/>
							</g>
							<g>
								<path class="st5" d="M-68.7,151.2l44.9-31.3c-9.3-13.3-20.8-24.9-34.2-34.2l-31.3,44.9C-81.2,136.2-74.3,143.2-68.7,151.2z"
									/>
							</g>
							<g>
								<path class="st5" d="M-46.6,178.8l44.8-9.8c-3.5-15.9-9.8-31.1-18.6-44.8L-59,148.9C-53.1,158-49,168.2-46.6,178.8z"/>
							</g>
							<g>
								<path class="st5" d="M-60.1,212.1l43.8,7.8c2.5-14.2,2.5-28.7,0-43l-43.8,7.8C-58.5,193.9-58.5,203.1-60.1,212.1z"/>
							</g>
							<g>
								<path class="st5" d="M-79,235.3l38,24.3c7.2-11.3,12.4-23.7,15.3-36.8l-44-9.7C-71.5,221-74.6,228.5-79,235.3z"/>
							</g>
							<g>
								<path class="st5" d="M-103,246.7l26.2,37.6c10.1-7.1,18.9-15.9,26-26l-37.6-26.2C-92.3,237.8-97.3,242.7-103,246.7z"/>
							</g>
							<g>
								<path class="st5" d="M-123,260l10.5,47.9c12.9-2.8,25.2-7.9,36.4-15.1l-26.5-41.3C-108.8,255.5-115.8,258.4-123,260z"/>
							</g>
							<g>
								<path class="st5" d="M-146.2,252.9l-9.1,50.9c12.4,2.2,25.2,2.2,37.6,0l-9.1-50.9C-133.2,254-139.8,254-146.2,252.9z"/>
							</g>
							<g>
								<path class="st5" d="M-169.9,250.6l-32.2,50.3c12.1,7.7,25.5,13.3,39.5,16.4l12.8-58.3
									C-156.9,257.4-163.7,254.6-169.9,250.6z"/>
							</g>
							<g>
								<path class="st5" d="M-188.8,235l-53.6,37.4c8.7,12.5,19.6,23.4,32.1,32.1l37.4-53.6C-179.2,246.5-184.5,241.1-188.8,235z"
									/>
							</g>
							<g>
								<path class="st5" d="M-193.9,211.1l-55,12.1c2.9,13.3,8.1,25.9,15.5,37.3l47.4-30.3C-189.7,224.3-192.4,217.9-193.9,211.1z"
									/>
							</g>
							<g>
								<path class="st5" d="M-195.6,187.9l-46.2-8.3c-2.2,12.4-2.2,25.2,0,37.6l46.2-8.3C-196.9,202.1-196.9,194.9-195.6,187.9z"/>
							</g>
							<g>
								<path class="st5" d="M-181.7,169.6l-25.6-16.4c-5.4,8.4-9.2,17.6-11.3,27.3l29.7,6.5C-187.6,180.8-185.1,174.9-181.7,169.6z
									"/>
							</g>
							<g>
								<path class="st5" d="M-167,154.7l-14.9-21.4c-7.7,5.4-14.4,12.1-19.8,19.8l21.4,14.9C-176.7,162.8-172.2,158.3-167,154.7z"
									/>
							</g>
							<g>
								<path class="st5" d="M-148.5,143.8l-5-22.7c-9.1,2-17.9,5.6-25.7,10.7l12.5,19.5C-161.2,147.7-155,145.2-148.5,143.8z"/>
							</g>
						</g>
					</g>
					<g>
						<g>
							<g>
								<path class="st6" d="M-117.6,92.4l4.7-26.3c-15.6-2.8-31.6-2.8-47.3,0l4.7,26.3C-142.9,90.2-130.1,90.2-117.6,92.4z"/>
							</g>
							<g>
								<path class="st6" d="M-70.1,94.7l17.7-27.6c-15.5-9.9-32.7-17-50.7-21l-7,32C-95.9,81.2-82.3,86.9-70.1,94.7z"/>
							</g>
							<g>
								<path class="st6" d="M-23.8,120l8.8-6.1C-25.1,99.5-37.5,87-51.9,77l-6.1,8.8C-44.7,95.1-33.1,106.6-23.8,120z"/>
							</g>
							<g>
								<path class="st6" d="M-1.8,168.9l9.6-2.1c-3.7-17-10.5-33.3-19.9-48l-8.3,5.3C-11.6,137.9-5.3,153-1.8,168.9z"/>
							</g>
							<g>
								<path class="st6" d="M-16.3,220l14.4,2.6c2.8-15.9,2.8-32.2,0-48.1l-14.4,2.6C-13.7,191.2-13.7,205.8-16.3,220z"/>
							</g>
							<g>
								<path class="st6" d="M-41,259.6l13.5,8.6c8.2-12.9,14.1-27.1,17.4-42l-15.6-3.4C-28.7,235.9-33.8,248.3-41,259.6z"/>
							</g>
							<g>
								<path class="st6" d="M-76.7,284.3l14.6,21c12.6-8.8,23.6-19.7,32.4-32.4l-21-14.6C-57.8,268.4-66.6,277.2-76.7,284.3z"/>
							</g>
							<g>
								<path class="st6" d="M-112.5,307.9l6.6,30c16.5-3.6,32.2-10.1,46.4-19.2l-16.5-25.8C-87.3,300-99.6,305.1-112.5,307.9z"/>
							</g>
							<g>
								<path class="st6" d="M-155.3,303.8l-6.6,36.8c16.8,3,34,3,50.7,0l-6.6-36.8C-130.2,306-142.9,306-155.3,303.8z"/>
							</g>
							<g>
								<path class="st6" d="M-202.1,300.9l-17,26.5c15.2,9.8,32.1,16.7,49.7,20.6l6.7-30.7C-176.6,314.2-190,308.7-202.1,300.9z"/>
							</g>
							<g>
								<path class="st6" d="M-242.4,272.3l-36.1,25.2c11.7,16.8,26.3,31.3,43,43l25.2-36.1C-222.9,295.7-233.7,284.8-242.4,272.3z"
									/>
							</g>
							<g>
								<path class="st6" d="M-248.8,223.1l-32.3,7.1c3.7,17.1,10.5,33.4,19.9,48.1l27.9-17.8C-240.7,249-245.9,236.4-248.8,223.1z"
									/>
							</g>
							<g>
								<path class="st6" d="M-241.8,179.7l-19.2-3.4c-2.6,14.7-2.6,29.8,0,44.5l19.2-3.4C-244,204.9-244,192.1-241.8,179.7z"/>
							</g>
							<g>
								<path class="st6" d="M-207.3,153.2l-8.3-5.3c-6,9.3-10.3,19.7-12.6,30.5l9.6,2.1C-216.5,170.8-212.6,161.6-207.3,153.2z"/>
							</g>
							<g>
								<path class="st6" d="M-182,133.3l-6.6-9.4c-8.8,6.1-16.5,13.8-22.6,22.6l9.4,6.6C-196.4,145.3-189.7,138.6-182,133.3z"/>
							</g>
							<g>
								<path class="st6" d="M-153.5,121.1l-2.9-13c-10.7,2.3-20.9,6.6-30.1,12.5l7.2,11.2C-171.4,126.7-162.6,123.1-153.5,121.1z"
									/>
							</g>
						</g>
					</g>
					<g>
						<g>
							<g>
								<path class="st7" d="M-112.9,66.2l0.8-4.2c-16.1-2.9-32.6-2.9-48.8,0l0.8,4.2C-144.5,63.4-128.5,63.4-112.9,66.2z"/>
							</g>
							<g>
								<path class="st7" d="M-52.4,67.1l2.6-4c-16-10.2-33.7-17.6-52.2-21.6l-1,4.7C-85.1,50-67.9,57.1-52.4,67.1z"/>
							</g>
							<g>
								<path class="st7" d="M-15.1,113.9l0.4-0.3c-10-14.4-22.5-26.9-36.9-36.9l-0.3,0.4C-37.5,87-25.1,99.5-15.1,113.9z"/>
							</g>
							<g>
								<path class="st7" d="M7.8,166.8l1.8-0.4C5.9,149.2-1,132.7-10.5,117.8l-1.6,1C-2.7,133.5,4.1,149.8,7.8,166.8z"/>
							</g>
							<g>
								<path class="st7" d="M-1.8,222.6l1.8,0.3c2.9-16.1,2.9-32.6,0-48.8l-1.8,0.3C1,190.4,1,206.6-1.8,222.6z"/>
							</g>
							<g>
								<path class="st7" d="M-27.6,268.2l4.9,3.2C-14,258-7.8,243.1-4.4,227.5l-5.7-1.3C-13.4,241.2-19.3,255.4-27.6,268.2z"/>
							</g>
							<g>
								<path class="st7" d="M-62.1,305.3l5.6,8.1c13.6-9.5,25.4-21.2,34.8-34.8l-8.1-5.6C-38.5,285.5-49.5,296.5-62.1,305.3z"/>
							</g>
							<g>
								<path class="st7" d="M-105.9,337.9l1.8,8.3c17.4-3.8,34.1-10.7,49.1-20.3l-4.6-7.2C-73.8,327.8-89.5,334.3-105.9,337.9z"/>
							</g>
							<g>
								<path class="st7" d="M-161.9,340.6l-2.3,13.1c18.3,3.3,37.1,3.3,55.4,0l-2.3-13.1C-127.9,343.6-145.1,343.6-161.9,340.6z"/>
							</g>
							<g>
								<path class="st7" d="M-219.1,327.4l-4.5,7c16.1,10.3,33.8,17.6,52.4,21.7l1.8-8.1C-187,344.2-203.8,337.2-219.1,327.4z"/>
							</g>
							<g>
								<path class="st7" d="M-278.5,297.5l-11.6,8.1c12.6,18.1,28.4,33.9,46.6,46.6l8.1-11.6C-252.3,328.8-266.8,314.3-278.5,297.5
									z"/>
							</g>
							<g>
								<path class="st7" d="M-281.1,230.2l-4.2,0.9c3.9,17.6,10.8,34.3,20.5,49.5l3.6-2.3C-270.6,263.6-277.4,247.3-281.1,230.2z"
									/>
							</g>
							<g>
								<path class="st7" d="M-261,176.3l-5.5-1c-2.7,15.4-2.7,31.1,0,46.4l5.5-1C-263.6,206-263.6,191-261,176.3z"/>
							</g>
							<g>
								<path class="st7" d="M-215.6,147.9l-2.9-1.9c-6.2,9.7-10.6,20.4-13.1,31.6l3.4,0.7C-225.9,167.5-221.6,157.2-215.6,147.9z"
									/>
							</g>
							<g>
								<path class="st7" d="M-188.5,123.9l-2-2.8c-9.2,6.4-17.1,14.3-23.5,23.5l2.8,2C-205,137.7-197.4,130-188.5,123.9z"/>
							</g>
							<g>
								<path class="st7" d="M-156.4,108.1l-0.8-3.6c-11.1,2.4-21.7,6.8-31.3,13l2,3.1C-177.2,114.6-167,110.4-156.4,108.1z"/>
							</g>
						</g>
					</g>
					<g>
						<g>
							<g>
								<path class="st8" d="M-112.1,62l0.1-0.8c-16.2-2.9-32.8-2.9-49,0l0.1,0.8C-144.8,59.1-128.3,59.1-112.1,62z"/>
							</g>
							<g>
								<path class="st8" d="M-49.8,63l0.1-0.2c-16-10.3-33.7-17.6-52.3-21.7l-0.1,0.3C-83.5,45.5-65.8,52.8-49.8,63z"/>
							</g>
							<g>
								<path class="st8" d="M-335,0"/>
							</g>
							<g>
								<path class="st8" d="M-335,0"/>
							</g>
							<g>
								<path class="st8" d="M0,222.9l0.5,0.1c2.9-16.2,2.9-32.8,0-49L0,174.1C2.9,190.2,2.9,206.8,0,222.9z"/>
							</g>
							<g>
								<path class="st8" d="M-22.6,271.4l0.2,0.1c8.6-13.5,14.8-28.4,18.2-44l-0.3-0.1C-7.8,243.1-14,258-22.6,271.4z"/>
							</g>
							<g>
								<path class="st8" d="M-56.4,313.4l0.2,0.2c13.6-9.5,25.4-21.3,34.9-34.9l-0.2-0.2C-31.1,292.1-42.9,303.9-56.4,313.4z"/>
							</g>
							<g>
								<path class="st8" d="M-104.1,346.2l0.4,1.8c17.7-3.9,34.5-10.9,49.7-20.6l-1-1.6C-70,335.5-86.7,342.4-104.1,346.2z"/>
							</g>
							<g>
								<path class="st8" d="M-335,0"/>
							</g>
							<g>
								<path class="st8" d="M-223.5,334.4l-0.1,0.2c16.1,10.3,33.9,17.7,52.5,21.7l0.1-0.3C-189.7,352-207.5,344.7-223.5,334.4z"/>
							</g>
							<g>
								<path class="st8" d="M-290.1,305.6l-0.9,0.6c12.7,18.2,28.6,34.1,46.8,46.8l0.6-0.9C-261.7,339.5-277.5,323.7-290.1,305.6z"
									/>
							</g>
							<g>
								<path class="st8" d="M-285.3,231.1l-0.8,0.2c3.9,17.7,10.9,34.5,20.6,49.7l0.7-0.4C-274.5,265.5-281.4,248.7-285.3,231.1z"
									/>
							</g>
							<g>
								<path class="st8" d="M-335,0"/>
							</g>
							<g>
								<path class="st8" d="M-218.5,146l-0.2-0.1c-6.2,9.7-10.7,20.5-13.1,31.7l0.3,0.1C-229.2,166.4-224.7,155.7-218.5,146z"/>
							</g>
							<g>
								<path class="st8" d="M-190.5,121l-0.3-0.4c-9.2,6.4-17.2,14.4-23.6,23.6l0.4,0.3C-207.6,135.4-199.7,127.4-190.5,121z"/>
							</g>
							<g>
								<path class="st8" d="M-335,0"/>
							</g>
						</g>
					</g>
					<g>
						<g>
							<g>
								<path class="st9" d="M-335,0"/>
							</g>
							<g>
								<path class="st9" d="M-335,0"/>
							</g>
							<g>
								<path class="st9" d="M-335,0"/>
							</g>
							<g>
								<path class="st9" d="M-335,0"/>
							</g>
							<g>
								<path class="st9" d="M-335,0"/>
							</g>
							<g>
								<path class="st9" d="M-335,0"/>
							</g>
							<g>
								<path class="st9" d="M-56.3,313.6l0.2,0.2c13.6-9.5,25.5-21.3,34.9-34.9l-0.2-0.2C-30.9,292.3-42.7,304.1-56.3,313.6z"/>
							</g>
							<g>
								<path class="st9" d="M-335,0"/>
							</g>
							<g>
								<path class="st9" d="M-335,0"/>
							</g>
							<g>
								<path class="st9" d="M-335,0"/>
							</g>
							<g>
								<path class="st9" d="M-335,0"/>
							</g>
							<g>
								<path class="st9" d="M-335,0"/>
							</g>
							<g>
								<path class="st9" d="M-335,0"/>
							</g>
							<g>
								<path class="st9" d="M-335,0"/>
							</g>
							<g>
								<path class="st9" d="M-335,0"/>
							</g>
							<g>
								<path class="st9" d="M-335,0"/>
							</g>
						</g>
					</g>
					<g>
						<g>
							<g>
								<path class="st10" d="M-112,61.2l0-0.3c-16.3-2.9-32.9-2.9-49.1,0l0,0.3C-144.8,58.3-128.2,58.3-112,61.2z"/>
							</g>
							<g>
								<path class="st10" d="M-335,0"/>
							</g>
							<g>
								<path class="st10" d="M-14.6,113.5l0.2-0.2c-10.1-14.4-22.6-27-37-37l-0.2,0.2C-37.2,86.6-24.7,99.2-14.6,113.5z"/>
							</g>
							<g>
								<path class="st10" d="M9.6,166.4l0.3-0.1c-3.8-17.3-10.6-33.8-20.2-48.7l-0.2,0.1C-1,132.7,5.9,149.2,9.6,166.4z"/>
							</g>
							<g>
								<path class="st10" d="M0.6,223l0.3,0c2.9-16.2,2.9-32.8,0-49l-0.3,0C3.4,190.2,3.4,206.8,0.6,223z"/>
							</g>
							<g>
								<path class="st10" d="M-335,0"/>
							</g>
							<g>
								<path class="st10" d="M-56.1,313.8l0.2,0.2c13.6-9.5,25.5-21.4,35-35l-0.2-0.2C-30.7,292.5-42.5,304.3-56.1,313.8z"/>
							</g>
							<g>
								<path class="st10" d="M-103.7,348l0.1,0.3c17.7-3.9,34.6-10.9,49.8-20.6l-0.1-0.2C-69.2,337.2-86,344.2-103.7,348z"/>
							</g>
							<g>
								<path class="st10" d="M-335,0"/>
							</g>
							<g>
								<path class="st10" d="M-223.7,334.6l-0.4,0.7c16.2,10.3,34,17.7,52.8,21.9l0.2-0.8C-189.8,352.3-207.6,344.9-223.7,334.6z"
									/>
							</g>
							<g>
								<path class="st10" d="M-291,306.2l-0.2,0.2c12.7,18.3,28.6,34.1,46.9,46.9l0.2-0.2C-262.4,340.3-278.3,324.4-291,306.2z"/>
							</g>
							<g>
								<path class="st10" d="M-335,0"/>
							</g>
							<g>
								<path class="st10" d="M-335,0"/>
							</g>
							<g>
								<path class="st10" d="M-218.8,145.9l-0.2-0.1c-6.2,9.7-10.7,20.5-13.2,31.8l0.3,0.1C-229.4,166.3-225,155.6-218.8,145.9z"/>
							</g>
							<g>
								<path class="st10" d="M-190.8,120.6l-0.2-0.2c-9.2,6.4-17.2,14.4-23.7,23.7l0.2,0.2C-208,135-200,127-190.8,120.6z"/>
							</g>
							<g>
								<path class="st10" d="M-335,0"/>
							</g>
						</g>
					</g>
					<g>
						<g>
							<g>
								<path class="st11" d="M-335,0"/>
							</g>
							<g>
								<path class="st11" d="M-335,0"/>
							</g>
							<g>
								<path class="st11" d="M-335,0"/>
							</g>
							<g>
								<path class="st11" d="M-335,0"/>
							</g>
							<g>
								<path class="st11" d="M-335,0"/>
							</g>
							<g>
								<path class="st11" d="M-335,0"/>
							</g>
							<g>
								<path class="st11" d="M-335,0"/>
							</g>
							<g>
								<path class="st11" d="M-335,0"/>
							</g>
							<g>
								<path class="st11" d="M-335,0"/>
							</g>
							<g>
								<path class="st11" d="M-335,0"/>
							</g>
							<g>
								<path class="st11" d="M-335,0"/>
							</g>
							<g>
								<path class="st11" d="M-335,0"/>
							</g>
							<g>
								<path class="st11" d="M-335,0"/>
							</g>
							<g>
								<path class="st11" d="M-335,0"/>
							</g>
							<g>
								<path class="st11" d="M-335,0"/>
							</g>
							<g>
								<path class="st11" d="M-335,0"/>
							</g>
						</g>
					</g>
					<g>
						<g>
							<g>
								<path class="st12" d="M-335,0"/>
							</g>
							<g>
								<path class="st12" d="M-335,0"/>
							</g>
							<g>
								<path class="st12" d="M-335,0"/>
							</g>
							<g>
								<path class="st12" d="M-335,0"/>
							</g>
							<g>
								<path class="st12" d="M-335,0"/>
							</g>
							<g>
								<path class="st12" d="M-335,0"/>
							</g>
							<g>
								<path class="st12" d="M-335,0"/>
							</g>
							<g>
								<path class="st12" d="M-335,0"/>
							</g>
							<g>
								<path class="st12" d="M-335,0"/>
							</g>
							<g>
								<path class="st12" d="M-335,0"/>
							</g>
							<g>
								<path class="st12" d="M-335,0"/>
							</g>
							<g>
								<path class="st12" d="M-335,0"/>
							</g>
							<g>
								<path class="st12" d="M-335,0"/>
							</g>
							<g>
								<path class="st12" d="M-335,0"/>
							</g>
							<g>
								<path class="st12" d="M-335,0"/>
							</g>
							<g>
								<path class="st12" d="M-335,0"/>
							</g>
						</g>
					</g>
				</g>
			</g>
		</g>
		<g>
			<path class="st1" d="M444.5,231.5C444.5,121.9,355.6,33,246,33S47.5,121.9,47.5,231.5S136.4,430,246,430S444.5,341.1,444.5,231.5
				z"/>
		</g>
		<g>
			<line class="st1" x1="246" y1="231.5" x2="444.5" y2="231.5"/>
		</g>
		<g>
			<g>
				<text transform="matrix(1 0 0 1 238.9141 27.7)" class="st13 st14 st15">0°</text>
			</g>
			<g>
				<text transform="matrix(1 0 0 1 388.3918 90.3615)" class="st13 st14 st15">45°</text>
			</g>
			<g>
				<text transform="matrix(1 0 0 1 447.3805 235.7)" class="st13 st14 st15">90°</text>
			</g>
			<g>
				<text transform="matrix(1 0 0 1 388.3918 385.3664)" class="st13 st14 st15">135°</text>
			</g>
			<g>
				<text transform="matrix(1 0 0 1 231.2852 444.9)" class="st13 st14 st15">180°</text>
			</g>
			<g>
				<text transform="matrix(1 0 0 1 74.1786 385.3664)" class="st13 st14 st15">225°</text>
			</g>
			<g>
				<text transform="matrix(1 0 0 1 15.1898 235.7)" class="st13 st14 st15">270°</text>
			</g>
			<g>
				<text transform="matrix(1 0 0 1 74.1786 90.3615)" class="st13 st14 st15">315°</text>
			</g>
		</g>
		<g transform="translate(581,231.5)">
			<g>
				<text transform="matrix(1 0 0 1 -338.834 14.9)" class="st13 st14 st15">0</text>
			</g>
			<g>
				<text transform="matrix(1 0 0 1 -315.474 14.9)" class="st13 st14 st15">1</text>
			</g>
			<g>
				<text transform="matrix(1 0 0 1 -292.114 14.9)" class="st13 st14 st15">2</text>
			</g>
			<g>
				<text transform="matrix(1 0 0 1 -268.754 14.9)" class="st13 st14 st15">3</text>
			</g>
			<g>
				<text transform="matrix(1 0 0 1 -245.394 14.9)" class="st13 st14 st15">4</text>
			</g>
			<g>
				<text transform="matrix(1 0 0 1 -222.024 14.9)" class="st13 st14 st15">5</text>
			</g>
			<g>
				<text transform="matrix(1 0 0 1 -198.664 14.9)" class="st13 st14 st15">6</text>
			</g>
			<g>
				<text transform="matrix(1 0 0 1 -175.304 14.9)" class="st13 st14 st15">7</text>
			</g>
			<g>
				<text transform="matrix(1 0 0 1 -151.944 14.9)" class="st13 st14 st15">8</text>
			</g>
		</g>
	</g>
</g>
<g>
	<g pointer-events="all" transform="translate(1164.44,33)">
		<rect x="-610.5" y="0" shape-rendering="crispEdges" class="st0" width="127" height="200"/>
		<g>
			<defs>
				<rect id="SVGID_3_" x="-610.5" y="0" width="127" height="200"/>
			</defs>
			<clipPath id="SVGID_4_">
				<use xlink:href="#SVGID_3_"  style="overflow:visible;"/>
			</clipPath>
			<g transform="" class="st16">
				<g>
					<g transform="translate(0,14.5)">
						<text transform="matrix(1 0 0 1 -570.4595 4.68)" class="st13 st14 st15">calm</text>
						<g>
							<g>
								<g>
									<path class="st17" d="M-584.5,6h-12V-6h12V6z"/>
								</g>
							</g>
						</g>
						<rect x="-610.5" y="-9.5" class="st18" width="121.9" height="19"/>
					</g>
					<g transform="translate(0,33.5)">
						<text transform="matrix(1 0 0 1 -570.4595 4.68)" class="st13 st14 st15">0.5 - 1.5 m/s</text>
						<g>
							<g>
								<g>
									<path class="st19" d="M-584.5,6h-12V-6h12V6z"/>
								</g>
							</g>
						</g>
						<rect x="-610.5" y="-9.5" class="st18" width="121.9" height="19"/>
					</g>
					<g transform="translate(0,52.5)">
						<text transform="matrix(1 0 0 1 -570.4595 4.68)" class="st13 st14 st15">1.5 - 3.3 m/s</text>
						<g>
							<g>
								<g>
									<path class="st20" d="M-584.5,6h-12V-6h12V6z"/>
								</g>
							</g>
						</g>
						<rect x="-610.5" y="-9.5" class="st18" width="121.9" height="19"/>
					</g>
					<g transform="translate(0,71.5)">
						<text transform="matrix(1 0 0 1 -570.4595 4.68)" class="st13 st14 st15">3.3 - 5.5 m/s</text>
						<g>
							<g>
								<g>
									<path class="st21" d="M-584.5,6h-12V-6h12V6z"/>
								</g>
							</g>
						</g>
						<rect x="-610.5" y="-9.5" class="st18" width="121.9" height="19"/>
					</g>
					<g transform="translate(0,90.5)">
						<text transform="matrix(1 0 0 1 -570.4595 4.68)" class="st13 st14 st15">5.5 - 7.9 m/s</text>
						<g>
							<g>
								<g>
									<path class="st22" d="M-584.5,6h-12V-6h12V6z"/>
								</g>
							</g>
						</g>
						<rect x="-610.5" y="-9.5" class="st18" width="121.9" height="19"/>
					</g>
					<g transform="translate(0,109.5)">
						<text transform="matrix(1 0 0 1 -570.4595 4.68)" class="st13 st14 st15">7.9 - 10.7 m/s</text>
						<g>
							<g>
								<g>
									<path class="st23" d="M-584.5,6h-12V-6h12V6z"/>
								</g>
							</g>
						</g>
						<rect x="-610.5" y="-9.5" class="st18" width="121.9" height="19"/>
					</g>
					<g transform="translate(0,128.5)">
						<text transform="matrix(1 0 0 1 -570.4595 4.68)" class="st13 st14 st15">10.7 - 13.8 m/s</text>
						<g>
							<g>
								<g>
									<path class="st24" d="M-584.5,6h-12V-6h12V6z"/>
								</g>
							</g>
						</g>
						<rect x="-610.5" y="-9.5" class="st18" width="121.9" height="19"/>
					</g>
					<g transform="translate(0,147.5)">
						<text transform="matrix(1 0 0 1 -570.4595 4.68)" class="st13 st14 st15">13.8 - 17.1 m/s</text>
						<g>
							<g>
								<g>
									<path class="st25" d="M-584.5,6h-12V-6h12V6z"/>
								</g>
							</g>
						</g>
						<rect x="-610.5" y="-9.5" class="st18" width="121.9" height="19"/>
					</g>
					<g transform="translate(0,166.5)">
						<text transform="matrix(1 0 0 1 -570.4595 4.68)" class="st13 st14 st15">17.1 - 20.7 m/s</text>
						<g>
							<g>
								<g>
									<path class="st26" d="M-584.5,6h-12V-6h12V6z"/>
								</g>
							</g>
						</g>
						<rect x="-610.5" y="-9.5" class="st18" width="121.9" height="19"/>
					</g>
					<g transform="translate(0,185.5)">
						<text transform="matrix(1 0 0 1 -570.4595 4.68)" class="st13 st14 st15">&gt;20.7 m/s</text>
						<g>
							<g>
								<g>
									<path class="st27" d="M-584.5,6h-12V-6h12V6z"/>
								</g>
							</g>
						</g>
						<rect x="-610.5" y="-9.5" class="st18" width="121.9" height="19"/>
					</g>
				</g>
			</g>
		</g>
		<polygon class="st28" points="-610.5,0 -610.5,0 -610.5,0 -610.5,0 -610.5,0 -610.5,0 -610.5,0 -610.5,0 		"/>
	</g>
</g>
</svg>
